<svg width="493" xmlns="http://www.w3.org/2000/svg" height="100" id="screenshot-7e6674e8-98e1-801a-8005-50860aad5eb2" viewBox="-63 1440 493 100" style="-webkit-print-color-adjust::exact" xmlns:xlink="http://www.w3.org/1999/xlink" fill="none" version="1.1">
  <style>
  </style>
  <g id="shape-7e6674e8-98e1-801a-8005-50860aad5eb2" rx="0" ry="0">
    <g id="shape-7e6674e8-98e1-801a-8005-50860aad5eb3" style="opacity:1" rx="0" ry="0">
      <g id="shape-7e6674e8-98e1-801a-8005-50860aad5eb6">
        <defs>
          <linearGradient id="fill-color-gradient-render-2274-0" x1="0.5" y1="0" x2="0.5" y2="1" gradientTransform="">
            <stop offset="0" stop-color="#0d0d7b" stop-opacity="1">
            </stop>
            <stop offset="1" stop-color="#003fff" stop-opacity="0">
            </stop>
          </linearGradient>
          <pattern patternUnits="userSpaceOnUse" x="-24.178328211765347" y="1440" width="72.17791633484524" height="29.344664775996307" patternTransform="matrix(1.000000, 0.000000, 0.000000, 1.000000, 0.000000, 0.000000)" id="fill-0-render-2274">
            <g>
              <rect width="72.17791633484524" height="29.344664775996307" style="fill:url(#fill-color-gradient-render-2274-0)">
              </rect>
            </g>
          </pattern>
        </defs>
        <g class="fills" id="fills-7e6674e8-98e1-801a-8005-50860aad5eb6">
          <path d="M12.006,1440.000C-5.504,1440.000,-20.208,1451.759,-24.178,1467.581L-15.634,1469.345C-12.505,1457.356,-1.309,1448.475,12.006,1448.475C25.051,1448.475,36.062,1457.000,39.446,1468.621L48.000,1466.856C43.768,1451.401,29.247,1440.000,12.006,1440.000Z" fill="url(#fill-0-render-2274)">
          </path>
        </g>
      </g>
      <g id="shape-7e6674e8-98e1-801a-8005-50860aad5eb7">
        <defs>
          <linearGradient id="fill-color-gradient-render-2275-0" x1="0.5" y1="0" x2="0.5" y2="1" gradientTransform="">
            <stop offset="0" stop-color="#0d0d7b" stop-opacity="1">
            </stop>
            <stop offset="1" stop-color="#003fff" stop-opacity="0">
            </stop>
          </linearGradient>
          <pattern patternUnits="userSpaceOnUse" x="-63" y="1471.638418079096" width="150" height="68.36158192090397" patternTransform="matrix(1.000000, 0.000000, 0.000000, 1.000000, 0.000000, 0.000000)" id="fill-0-render-2275">
            <g>
              <rect width="150" height="68.36158192090397" style="fill:url(#fill-color-gradient-render-2275-0)">
              </rect>
            </g>
          </pattern>
        </defs>
        <g class="fills" id="fills-7e6674e8-98e1-801a-8005-50860aad5eb7">
          <path d="M-6.198,1491.955L-10.061,1487.508C-14.696,1483.274,-20.937,1480.678,-27.797,1480.678C-42.088,1480.678,-53.690,1491.943,-53.690,1505.819C-53.690,1519.695,-42.088,1530.960,-27.797,1530.960C-25.115,1530.960,-22.529,1530.564,-20.096,1529.828L-11.508,1529.898L-11.538,1536.139C-16.403,1538.605,-21.933,1540.000,-27.797,1540.000C-47.226,1540.000,-63.000,1524.684,-63.000,1505.819C-63.000,1486.954,-47.226,1471.638,-27.797,1471.638C-15.753,1471.638,-5.114,1477.523,1.234,1486.490L16.631,1504.215C16.632,1504.211,16.632,1504.207,16.632,1504.203L30.665,1520.344C30.706,1520.401,30.748,1520.457,30.789,1520.513L33.318,1523.424C38.018,1528.074,44.563,1530.960,51.797,1530.960C66.088,1530.960,77.690,1519.695,77.690,1505.819C77.690,1491.943,66.088,1480.678,51.797,1480.678C49.283,1480.678,46.852,1481.027,44.553,1481.677L35.683,1481.605L35.713,1475.411C40.535,1473.000,46.004,1471.638,51.797,1471.638C71.226,1471.638,87.000,1486.954,87.000,1505.819C87.000,1524.684,71.226,1540.000,51.797,1540.000C40.191,1540.000,29.889,1534.535,23.474,1526.113L-4.736,1493.638L-6.198,1491.955ZC-6.188,1491.970,-6.178,1491.984,-6.198,1491.955ZL-4.736,1493.638M36.582,1485.480C33.204,1487.866,30.443,1491.026,28.575,1494.691L22.509,1496.936L20.638,1489.907C22.906,1485.733,26.037,1482.068,29.801,1479.138L29.801,1485.480L36.582,1485.480ZM-12.355,1525.997C-9.230,1523.737,-6.646,1520.810,-4.829,1517.433L1.741,1515.001L3.476,1521.520C1.235,1525.716,-1.875,1529.404,-5.623,1532.360L-5.623,1525.997L-12.355,1525.997Z" fill="url(#fill-0-render-2275)">
          </path>
        </g>
      </g>
    </g>
    <g id="shape-7e6674e8-98e1-801a-8005-50860aad5eb4">
      <g transform="matrix(1.000000, 0.000000, 0.000000, 1.000000, 0.000000, 0.000000)" class="text-container" x="146.6851361236894" y="1442.7096586241678" width="194.60347827830202" height="68.06223014765919" rx="0" ry="0">
        <defs>
          <pattern patternUnits="userSpaceOnUse" x="146.6851361236894" y="1442.7096586241678" width="179.015625" height="35" id="fill-0-render-2276-0">
            <g>
              <rect width="179.015625" height="35" style="fill:#000000;fill-opacity:1">
              </rect>
            </g>
          </pattern>
        </defs>
        <g class="fills" id="fills-7e6674e8-98e1-801a-8005-50860aad5eb4">
          <text x="154.4663861236894" y="1488.7252836241678" dominant-baseline="ideographic" textLength="179.015625" lengthAdjust="spacingAndGlyphs" style="text-transform:none;font-family:&quot;Roboto Flex&quot;;letter-spacing:normal;font-style:normal;font-weight:400;white-space:pre;font-size:30px;text-decoration:none solid rgb(0, 0, 0);direction:ltr;fill:#000000;fill-opacity:1">Skylite Digital</text>
        </g>
      </g>
    </g>
    <g id="shape-7e6674e8-98e1-801a-8005-50860aad5eb5">
      <g transform="matrix(1.000000, 0.000000, 0.000000, 1.000000, 0.000000, 0.000000)" class="text-container" x="71.37359002998653" y="1490.7096586241678" width="358.62640997001347" height="46.792783226515894" rx="0" ry="0">
        <defs>
          <pattern patternUnits="userSpaceOnUse" x="71.37359002998653" y="1490.7096586241678" width="309.25" height="24" id="fill-0-render-2277-0">
            <g>
              <rect width="309.25" height="24" style="fill:#000000;fill-opacity:1">
              </rect>
            </g>
          </pattern>
        </defs>
        <g class="fills" id="fills-7e6674e8-98e1-801a-8005-50860aad5eb5">
          <text x="96.06109002998653" y="1526.1002836241678" dominant-baseline="ideographic" textLength="309.25" lengthAdjust="spacingAndGlyphs" style="text-transform:uppercase;font-family:Roboto;letter-spacing:normal;font-style:normal;font-weight:400;white-space:pre;font-size:20px;text-decoration:none solid rgb(0, 0, 0);direction:ltr;fill:#000000;fill-opacity:1">INPIRED BY YOU, CRAFTING BY US</text>
        </g>
      </g>
    </g>
  </g>
</svg>