<svg width="150" xmlns="http://www.w3.org/2000/svg" height="100" fill="none"><g style="opacity: 1;"><defs><linearGradient id="a" x1=".5" y1="0" x2=".5" y2="1"><stop offset="0" stop-color="#0d0d7b"/><stop offset="1" stop-color="#003fff" stop-opacity="0"/></linearGradient><pattern patternUnits="userSpaceOnUse" x="38.822" y="0" width="72.178" height="29.345" id="b"><rect width="72.178" height="29.345" style="fill: url(&quot;#a&quot;);"/></pattern></defs><path d="M75.006 0c-17.51 0-32.214 11.759-36.184 27.581l8.544 1.764c3.129-11.989 14.325-20.87 27.64-20.87 13.045 0 24.056 8.525 27.44 20.146L111 26.856C106.768 11.401 92.247 0 75.006 0Z" fill="url(#b)" class="fills"/><defs><linearGradient id="c" x1=".5" y1="0" x2=".5" y2="1"><stop offset="0" stop-color="#0d0d7b"/><stop offset="1" stop-color="#003fff" stop-opacity="0"/></linearGradient><pattern patternUnits="userSpaceOnUse" x="0" y="31.638" width="150" height="68.362" id="d"><rect width="150" height="68.362" style="fill: url(&quot;#c&quot;);"/></pattern></defs><path d="m56.802 51.955-3.863-4.447c-4.635-4.234-10.876-6.83-17.736-6.83-14.291 0-25.893 11.265-25.893 25.141 0 13.876 11.602 25.141 25.893 25.141a26.56 26.56 0 0 0 7.701-1.132l8.588.07-.03 6.241C46.597 98.605 41.067 100 35.203 100 15.774 100 0 84.684 0 65.819c0-18.865 15.774-34.181 35.203-34.181 12.044 0 22.683 5.885 29.031 14.852l15.397 17.725.001-.012 14.033 16.141.124.169 2.529 2.911c4.7 4.65 11.245 7.536 18.479 7.536 14.291 0 25.893-11.265 25.893-25.141 0-13.876-11.602-25.141-25.893-25.141-2.514 0-4.945.349-7.244.999l-8.87-.072.03-6.194a35.883 35.883 0 0 1 16.084-3.773c19.429 0 35.203 15.316 35.203 34.181C150 84.684 134.226 100 114.797 100c-11.606 0-21.908-5.465-28.323-13.887l-28.21-32.475-1.462-1.683Zc.01.015.02.029 0 0Zl1.462 1.683m41.318-8.158a25.464 25.464 0 0 0-8.007 9.211l-6.066 2.245-1.871-7.029a34.62 34.62 0 0 1 9.163-10.769v6.342h6.781ZM50.645 85.997a25.515 25.515 0 0 0 7.526-8.564l6.57-2.432 1.735 6.519a34.579 34.579 0 0 1-9.099 10.84v-6.363h-6.732Z" fill="url(#d)" class="fills"/></g></svg>